<?xml version="1.0" encoding="UTF-8"?>
<svg id="Layer_1" data-name="Layer 1" xmlns="http://www.w3.org/2000/svg" viewBox="0 0 416.19 108.63">
  <path d="M0,56.51c.16-5.98,1.56-11.66,4.18-17.08,1.54-3.17,3.67-5.93,6.02-8.5,1.44-1.58,1.29-2.85-.06-4.27-1.23-1.31-2.42-2.65-3.66-4.01,.6-.6,1.21-.37,1.73-.32,17.77,1.7,34.94-1.58,51.92-6.27,16.09-4.44,32.13-8.99,48.48-12.46C128.2-.56,147.92-.8,167.69,1.28c25.77,2.71,50.01,11.13,73.85,20.81,1.82,.74,3.76,1.25,5.58,2.54-.81,.41-1.39,.18-1.97,0-15.13-4.54-30.5-8.03-46.1-10.53-24.54-3.93-49.2-6.1-74.05-4.09-15.28,1.24-29.79,5.8-44.11,10.99-2.16,.78-4.13,2.12-6.15,3.26-.85,.48-1.61,1.14-2.52,1.81,1.15,1.14,2.52,1.49,3.87,1.67,16.97,2.26,33.94,4.45,50.99,6.14,31.27,3.11,62.66,2.6,94,3.4,23.8,.61,47.6,.04,71.37-1.07,17.62-.82,35.24-1.9,52.89-1.39,14.43,.41,28.44,2.82,41.45,9.44,12.67,6.45,22.24,15.85,27.53,29.21,1.61,4.07,2.36,8.27,1.52,12.81-1.13-2.95-2.19-5.77-3.29-8.58-1.64-4.21-4.04-7.99-6.82-11.52-1.73-2.2-3.98-3.76-6.74-4.46-6.98-1.77-13.24-4.81-18.4-9.95-4.58-4.56-10.63-5.54-16.64-6.49-13.74-2.19-27.54-1.57-41.34-.87-11.96,.61-23.93,1.25-35.89,1.83-20.36,1-40.71,2.17-61.09,2.7-28.61,.74-57.22,1.6-85.84-.04-14.79-.85-29.55-1.88-44.18-4.19-11.98-1.88-23.78-4.67-35.64-7.18-3.41-.72-6.82-1.37-10.12-2.58-2.38-.87-4.78-.28-7.01,.77-1.57,.74-3.18,1.49-4.6,2.47-8.23,5.67-17.21,6.98-26.88,4.91-5.43-1.16-6.83-.22-8.3,5.01-.8,2.83-1.56,5.67-2.34,8.51-.24-.05-.48-.1-.71-.15Z" style="fill: #3c558f;"/>
  <path d="M101.02,99.68c-.29-24.44-17.4-35.19-31.19-36.31-10.41-.85-19.39,2.97-26.74,10.42-7.44,7.53-9.1,17.08-9.32,27.17-2.1-2.54-2.44-5.54-2.75-8.42-2.37-22.06,15.64-39.97,35.81-39.56,6.68,.14,13.33,1.62,19.16,5.48,3.55,2.35,7.74,2.4,11.79,2.55,20.62,.77,41.24,1.4,61.86,2.18,22.94,.87,45.88,1.86,68.83,2.8,.89,.04,1.78,.17,2.67,.43-5.26,.97-10.58,.91-15.87,1.2-22.34,1.2-44.69,2.3-67.04,3.38-14.79,.72-29.59,1.33-44.38,2.01-3.73,.17-3.91,.33-2.81,3.97,1.98,6.53,2.87,13.09,1.31,19.83-.21,.91-.2,1.97-1.32,2.87Z" style="fill: #d82f37;"/>
  <path d="M385.38,103.72c1.14-12.37-1.81-22.97-11.69-30.81-6.98-5.54-14.89-8.32-23.9-7.23-10.3,1.25-18.56,6.18-24.45,14.62-6.01,8.61-5.87,18.36-4.22,28.33-6.19-6.22-8.61-26.62,2.92-40.23,13.02-15.37,36.22-18.49,52.72-4.04,12.1,10.6,15.22,32.75,8.61,39.36Z" style="fill: #d82f37;"/>
  <path d="M255.42,66.46c.44-.74,1.09-.48,1.62-.47,9.81,.1,19.62-.06,29.4-.82,3.18-.25,5.25,.79,6.34,3.87,.64,1.78,1.56,3.47,2.45,5.16,.74,1.41,1.71,1.69,2.88,.35,1.57-1.8,3.19-3.57,4.78-5.35,.73,.53,.73,1.21,.49,1.83-2.54,6.46-5.1,12.9-7.79,19.66-3.07-4.48-5.34-8.96-7.32-13.52-1.74-4-4.44-5.56-8.69-6.1-7.64-.97-15.31-2-22.82-3.84-.45-.11-1.03,.01-1.34-.75Z" style="fill: #d82f37;"/>
</svg>