<?xml version="1.0" standalone="no"?>
<!DOCTYPE svg PUBLIC "-//W3C//DTD SVG 20010904//EN"
 "http://www.w3.org/TR/2001/REC-SVG-20010904/DTD/svg10.dtd">
<svg version="1.0" xmlns="http://www.w3.org/2000/svg"
 width="600.000000pt" height="338.000000pt" viewBox="0 0 600.000000 338.000000"
 preserveAspectRatio="xMidYMid meet">
<g transform="translate(0.000000,338.000000) scale(0.100000,-0.100000)"
fill="#000000" stroke="none">
<path d="M1920 2864 c-96 -13 -303 -60 -456 -104 -300 -87 -388 -103 -561
-104 -84 -1 -153 -2 -153 -2 0 -1 13 -16 30 -34 l29 -31 -43 -58 c-44 -60 -81
-168 -74 -212 5 -28 9 -19 27 56 18 74 26 79 107 67 92 -14 143 -4 241 48 l83
43 122 -31 c567 -142 1107 -157 2583 -72 231 14 313 13 425 -5 123 -20 121
-19 177 -66 55 -46 156 -99 188 -99 40 0 127 -117 146 -196 17 -72 33 -81 24
-14 -10 73 -27 118 -68 182 -89 137 -239 229 -443 273 -106 23 -390 30 -584
16 -243 -18 -1067 -25 -1360 -12 -351 16 -927 75 -949 97 -8 8 40 43 69 50 14
4 34 12 45 19 11 6 29 14 40 18 243 72 386 91 635 84 299 -9 621 -59 874 -137
109 -34 87 -16 -41 33 -165 63 -351 122 -463 147 -52 11 -113 25 -135 31 -41
11 -453 21 -515 13z m467 -32 c9 -5 24 -7 34 -5 11 3 19 1 19 -3 0 -5 12 -10
28 -10 39 -2 144 -25 165 -36 10 -5 28 -6 40 -3 16 5 18 4 8 -3 -11 -8 -11
-10 0 -15 8 -3 -2 -3 -21 0 -19 4 -36 9 -38 12 -1 4 -19 6 -39 5 -21 -1 -64 2
-97 7 -119 20 -143 22 -291 24 -144 3 -304 -8 -341 -22 -12 -4 -15 -3 -10 6 5
8 -5 7 -31 -4 -21 -9 -54 -18 -73 -20 -19 -2 -53 -10 -75 -18 -22 -8 -46 -12
-54 -9 -8 3 -11 0 -7 -7 5 -7 1 -9 -10 -4 -11 4 -15 3 -11 -4 5 -7 -2 -10 -19
-8 -14 1 -31 -3 -37 -10 -6 -6 -22 -10 -36 -8 -23 3 -24 2 -6 -6 18 -9 17 -10
-7 -10 -16 -1 -28 -6 -28 -12 0 -5 -4 -8 -9 -5 -8 5 -29 -15 -61 -58 -10 -13
-11 -17 -2 -12 7 4 19 0 28 -8 13 -14 44 -20 106 -20 9 0 14 -4 11 -9 -4 -6 4
-7 21 -3 15 4 32 4 38 0 6 -4 25 -8 42 -9 108 -6 216 -19 206 -25 -6 -4 15 -6
47 -5 32 1 76 -2 98 -6 192 -37 1346 -46 1790 -13 91 6 394 6 447 -1 26 -3 71
-13 100 -21 29 -8 60 -16 68 -17 63 -9 230 -94 214 -109 -3 -4 3 -5 13 -4 10
0 17 -5 15 -11 -1 -7 5 -13 13 -13 8 0 15 -5 15 -11 0 -5 4 -8 8 -5 4 2 13 -4
20 -14 11 -18 10 -19 -11 -11 -25 10 -31 11 -51 11 -7 0 -30 11 -50 25 -21 14
-40 24 -44 22 -4 -2 -22 12 -41 31 -18 19 -26 32 -18 29 9 -3 19 -1 23 6 4 7
4 9 0 5 -5 -4 -19 -3 -33 3 -18 7 -23 6 -18 -4 4 -6 -2 -2 -13 11 -21 23 -38
30 -26 11 4 -8 0 -8 -15 0 -12 7 -27 9 -33 5 -6 -4 -8 -3 -4 4 3 6 2 13 -4 17
-5 3 -10 1 -10 -5 0 -6 -4 -9 -9 -6 -24 15 -301 23 -324 9 -6 -4 -7 -1 -3 6 6
9 -1 11 -28 6 -19 -4 -73 -8 -120 -9 -46 0 -82 -4 -80 -7 2 -4 -14 -6 -36 -6
-22 0 -40 3 -40 6 0 4 -28 4 -62 -1 -117 -14 -711 -42 -905 -42 -48 0 -79 -4
-76 -10 3 -5 2 -6 -4 -3 -5 4 -142 8 -304 11 -266 4 -574 25 -639 43 -14 4
-36 8 -50 9 -45 4 -115 16 -130 21 -8 3 -28 7 -45 8 -16 1 -66 11 -110 21 -44
10 -83 17 -87 16 -5 -1 -8 2 -8 7 0 10 -81 24 -125 21 -16 -1 -40 -3 -52 -4
-17 -1 -19 -4 -10 -15 8 -10 8 -12 1 -8 -6 3 -20 -2 -31 -13 -12 -10 -24 -16
-27 -13 -3 4 -15 -2 -26 -12 -19 -17 -126 -32 -116 -17 2 4 -16 6 -40 5 -25
-1 -42 2 -40 6 3 4 -2 8 -10 8 -8 0 -13 -5 -11 -12 3 -6 -3 -11 -13 -11 -15 0
-13 7 13 43 53 73 53 71 40 92 -11 17 -9 19 18 23 16 3 29 1 29 -4 0 -5 3 -7
8 -5 4 3 45 8 91 11 46 4 87 8 90 10 4 3 26 7 50 11 24 3 54 11 68 16 14 5 35
7 47 4 17 -5 18 -4 6 5 -11 8 -6 9 23 4 22 -4 37 -2 37 4 0 10 75 33 120 38
14 1 39 8 55 14 17 7 37 14 45 15 13 1 52 13 110 33 8 3 23 4 33 3 9 -1 17 1
17 6 0 4 18 9 40 11 22 1 52 7 66 12 14 6 49 13 77 16 29 3 68 10 87 14 46 10
426 3 447 -8z"/>
<path d="M1540 2730 c8 -5 20 -10 25 -10 6 0 3 5 -5 10 -8 5 -19 10 -25 10 -5
0 -3 -5 5 -10z"/>
<path d="M1195 2571 c-3 -5 -2 -12 3 -15 5 -3 9 1 9 9 0 17 -3 19 -12 6z"/>
<path d="M1228 2563 c7 -3 16 -2 19 1 4 3 -2 6 -13 5 -11 0 -14 -3 -6 -6z"/>
<path d="M4520 2370 c-18 -12 -2 -12 25 0 13 6 15 9 5 9 -8 0 -22 -4 -30 -9z"/>
<path d="M4559 2343 c-13 -16 -12 -17 4 -4 16 13 21 21 13 21 -2 0 -10 -8 -17
-17z"/>
<path d="M1275 2336 c-75 -19 -125 -48 -178 -105 -62 -66 -87 -124 -94 -214
-5 -68 9 -157 25 -157 4 0 7 33 8 73 0 62 5 82 34 135 105 198 362 234 521 73
60 -61 85 -115 96 -209 4 -34 9 -49 14 -40 14 21 10 151 -5 202 -11 35 -11 48
-3 51 7 2 71 6 142 9 72 3 213 10 315 15 102 6 316 15 475 22 514 21 505 22
-385 53 -646 23 -658 24 -708 53 -24 14 -75 32 -115 39 -83 16 -77 16 -142 0z
m149 -27 c-5 -9 -2 -10 9 -6 9 3 19 2 22 -3 4 -6 11 -10 16 -10 6 0 7 5 3 12
-4 7 6 2 23 -10 17 -12 36 -22 41 -22 6 0 12 -5 14 -11 2 -6 15 -12 28 -14 44
-4 309 -15 507 -20 106 -3 203 -10 215 -15 18 -8 14 -9 -20 -5 -24 3 -41 2
-39 -2 3 -5 -16 -9 -42 -9 -32 -1 -40 1 -26 7 14 5 15 8 5 8 -9 1 -20 -3 -25
-8 -9 -8 -100 -14 -383 -26 -40 -2 -76 -6 -79 -9 -9 -9 -25 -7 -19 2 3 5 -1 9
-9 9 -12 0 -12 -3 -2 -15 9 -12 9 -16 -1 -20 -10 -3 -10 -9 2 -27 12 -19 13
-26 3 -31 -6 -4 -9 -4 -5 1 4 4 -4 22 -17 40 -14 17 -22 36 -17 41 4 5 3 6 -2
2 -12 -11 -36 10 -30 26 3 7 -3 19 -12 27 -10 8 -15 9 -11 2 13 -21 -17 -20
-36 1 -10 12 -15 14 -11 6 7 -12 3 -11 -19 3 -14 9 -34 17 -44 17 -10 1 -36 7
-58 15 -35 13 -47 12 -100 -2 -33 -9 -68 -16 -78 -15 -9 0 -15 -3 -12 -9 4 -5
-3 -9 -15 -9 -11 0 -23 -7 -26 -15 -4 -8 -15 -15 -26 -15 -10 0 -16 -4 -13
-10 3 -5 -1 -10 -10 -10 -10 0 -13 5 -9 13 4 6 3 8 -1 4 -14 -12 -15 -38 -2
-30 7 3 -6 -10 -28 -31 -22 -20 -39 -40 -39 -44 1 -4 -2 -16 -7 -27 -6 -16 -8
-17 -8 -3 -1 9 4 20 9 23 6 4 8 10 5 14 -8 14 26 72 38 65 7 -4 9 -4 5 1 -11
11 10 45 28 45 8 0 13 4 9 10 -3 5 7 16 23 24 16 8 32 22 35 31 4 8 14 15 24
15 10 1 28 6 41 13 31 18 187 23 176 6z m166 -109 c0 -5 -5 -10 -11 -10 -5 0
-7 5 -4 10 3 6 8 10 11 10 2 0 4 -4 4 -10z m843 3 c-7 -2 -19 -2 -25 0 -7 3
-2 5 12 5 14 0 19 -2 13 -5z"/>
<path d="M1260 2300 c-9 -6 -10 -10 -3 -10 6 0 15 5 18 10 8 12 4 12 -15 0z"/>
<path d="M4117 2320 c-110 -19 -208 -94 -259 -198 -29 -59 -33 -76 -33 -152 0
-58 6 -100 18 -132 20 -52 43 -67 25 -17 -16 46 -4 149 25 212 87 191 336 247
499 114 73 -60 109 -133 116 -234 5 -75 6 -77 18 -48 18 41 17 141 -1 202 -51
173 -231 284 -408 253z m137 -31 c-3 -6 6 -7 23 -4 23 5 25 4 13 -5 -12 -10
-11 -11 7 -7 13 3 26 1 29 -4 3 -5 10 -7 15 -4 5 4 9 2 9 -4 0 -5 12 -16 27
-23 15 -7 33 -24 40 -38 7 -14 13 -21 13 -17 0 4 6 2 14 -5 8 -7 12 -16 10
-20 -2 -3 -1 -8 3 -10 5 -1 16 -18 26 -35 15 -28 16 -32 2 -27 -8 3 -15 13
-15 21 0 8 -5 11 -12 7 -6 -4 -8 -3 -5 3 4 6 0 14 -9 17 -9 3 -14 12 -11 20 3
8 -1 13 -11 12 -10 0 -17 6 -17 16 0 9 -4 20 -9 25 -5 4 -6 3 -2 -4 3 -6 2
-14 -3 -17 -5 -3 -11 1 -15 9 -3 8 -11 12 -19 9 -8 -3 -20 2 -27 10 -7 9 -17
13 -23 9 -6 -4 -7 -1 -2 7 6 9 2 10 -15 5 -16 -5 -20 -4 -15 5 6 9 3 9 -14 1
-11 -7 -21 -8 -21 -3 0 4 -29 8 -64 8 -35 -1 -62 -4 -60 -7 7 -12 -60 -17 -83
-6 -26 12 -30 27 -7 27 8 0 12 5 9 10 -8 13 1 13 25 0 13 -7 21 -7 26 2 5 7 2
9 -7 4 -8 -4 -7 -1 2 6 19 15 183 22 173 7z m-249 -59 c-3 -5 0 -7 8 -4 8 3
18 1 22 -5 5 -10 -14 -16 -37 -12 -5 0 -7 -2 -6 -6 4 -11 -49 -62 -56 -55 -3
3 -6 -2 -6 -11 0 -9 -4 -17 -10 -17 -5 0 -10 -6 -10 -14 0 -8 -7 -16 -15 -20
-8 -3 -15 -15 -15 -26 0 -12 -7 -20 -16 -20 -15 0 -15 2 0 25 12 18 13 25 4
25 -8 0 -5 5 5 11 9 6 15 14 12 20 -4 5 2 6 12 2 14 -5 15 -3 6 7 -8 9 -6 18
9 36 12 13 25 21 29 18 5 -3 6 2 3 10 -3 9 3 19 16 26 18 10 21 9 16 -2 -4 -7
-1 -5 6 5 13 18 34 24 23 7z"/>
<path d="M3378 2222 c-87 -1 -158 -6 -158 -11 0 -5 37 -14 83 -20 45 -6 112
-16 149 -22 l67 -11 46 -89 c25 -49 49 -89 53 -89 9 0 83 193 76 199 -3 3 -18
-9 -32 -27 -15 -18 -30 -32 -33 -32 -3 0 -16 23 -29 50 -13 28 -27 50 -31 50
-4 0 -13 1 -21 3 -7 1 -84 1 -170 -1z m175 -31 c4 -1 7 -5 7 -9 0 -14 -53 -8
-58 6 -2 8 4 11 20 8 12 -3 26 -5 31 -5z m26 -23 c-2 -22 13 -58 25 -58 6 0 4
-5 -4 -10 -8 -5 -10 -10 -4 -10 5 0 15 5 22 12 9 9 12 9 12 -1 0 -7 4 -10 9
-7 5 4 7 -3 4 -14 -3 -11 -10 -17 -16 -13 -6 4 -8 0 -4 -11 4 -9 3 -15 -2 -11
-5 3 -12 -1 -14 -7 -3 -7 -6 -3 -6 9 -1 12 -6 25 -12 28 -6 4 -8 13 -5 21 3 9
-1 14 -12 14 -14 0 -14 2 -3 9 11 7 9 11 -8 20 -11 7 -21 16 -21 22 0 6 4 8 9
4 5 -3 12 -1 16 5 9 14 16 13 14 -2z"/>
<path d="M1333 1649 c-80 -40 -123 -112 -123 -206 0 -73 30 -129 85 -160 46
-26 116 -30 157 -9 15 8 28 11 30 7 2 -4 17 -11 34 -14 l31 -6 13 62 c16 78
26 97 49 97 19 0 31 18 31 46 0 11 -20 14 -100 14 -80 0 -100 -3 -100 -14 0
-8 -3 -21 -6 -30 -5 -12 0 -16 20 -16 21 0 26 -5 26 -24 0 -29 -28 -64 -55
-67 -65 -9 -105 35 -105 116 0 130 115 212 191 136 16 -16 29 -37 29 -45 0
-11 9 -16 30 -16 33 0 36 12 24 104 -6 39 -10 46 -30 46 -12 0 -24 -5 -26 -11
-3 -9 -9 -9 -25 0 -36 19 -133 14 -180 -10z m181 -20 c14 -18 37 -23 30 -6 -3
8 2 14 11 14 11 0 15 -7 12 -17 -2 -10 0 -25 5 -34 6 -10 5 -16 -2 -16 -6 0
-8 -5 -4 -12 4 -7 3 -8 -4 -4 -7 4 -12 17 -13 29 0 12 -3 17 -5 11 -3 -7 -17
0 -34 17 -16 16 -36 29 -46 29 -32 0 -93 -23 -87 -33 3 -6 1 -7 -5 -3 -7 4
-12 2 -12 -3 0 -6 -5 -10 -11 -8 -6 1 -14 -4 -17 -12 -3 -9 0 -11 8 -6 9 6 11
4 6 -4 -5 -7 -14 -10 -20 -8 -7 3 -18 -5 -26 -16 -12 -20 -12 -21 4 -8 14 12
16 12 10 -3 -3 -9 -10 -16 -14 -16 -4 0 -6 -29 -4 -63 2 -63 26 -139 41 -135
4 1 20 -4 35 -12 14 -7 37 -10 50 -6 34 9 95 48 81 53 -8 3 -9 12 -3 29 7 19
5 28 -11 43 -18 16 -18 19 -4 25 9 3 13 2 10 -4 -3 -6 -1 -10 4 -10 6 0 11 5
11 11 0 5 5 7 10 4 8 -5 8 -11 0 -20 -8 -10 -8 -15 0 -20 8 -5 8 -11 -1 -21
-6 -8 -9 -17 -5 -21 3 -3 6 -1 6 6 0 7 5 9 10 6 6 -4 9 -1 8 6 -2 6 3 14 10
16 9 4 10 -2 2 -23 -6 -15 -9 -33 -6 -41 3 -7 1 -13 -4 -13 -6 0 -10 -9 -10
-20 0 -16 -5 -19 -22 -15 -35 9 -59 8 -106 -6 -45 -12 -67 -7 -119 32 -17 13
-19 19 -10 29 9 10 9 11 -1 5 -9 -4 -15 0 -19 14 -3 12 -9 21 -13 21 -3 0 -7
18 -8 41 -2 42 33 139 50 139 5 0 6 4 3 10 -6 10 58 55 91 62 39 10 127 2 138
-13z m66 -191 c-22 -21 -34 -23 -25 -5 4 6 0 4 -8 -6 -9 -11 -18 -14 -21 -8
-4 5 -2 12 4 16 6 4 8 10 5 15 -2 4 11 7 30 7 33 -1 34 -2 15 -19z"/>
<path d="M1310 1600 c-9 -6 -10 -10 -3 -10 6 0 15 5 18 10 8 12 4 12 -15 0z"/>
<path d="M1250 1501 c0 -5 5 -13 10 -16 6 -3 10 -2 10 4 0 5 -4 13 -10 16 -5
3 -10 2 -10 -4z"/>
<path d="M1243 1455 c-3 -9 -3 -18 -1 -21 3 -3 8 4 11 16 6 23 -1 27 -10 5z"/>
<path d="M1277 1439 c4 -13 8 -18 11 -10 2 7 -1 18 -6 23 -8 8 -9 4 -5 -13z"/>
<path d="M1509 1333 c-13 -16 -12 -17 4 -4 9 7 17 15 17 17 0 8 -8 3 -21 -13z"/>
<path d="M1340 1316 c0 -2 8 -10 18 -17 15 -13 16 -12 3 4 -13 16 -21 21 -21
13z"/>
<path d="M1696 1648 c-9 -35 -8 -38 14 -38 26 0 25 -7 -6 -148 -28 -124 -36
-142 -64 -142 -14 0 -29 -25 -30 -50 0 -3 83 -5 184 -5 l184 0 36 73 36 72
-26 11 c-15 5 -28 8 -29 7 -51 -78 -86 -98 -168 -98 l-55 0 8 33 c4 17 11 44
14 60 4 17 13 27 25 27 24 0 43 -23 35 -44 -5 -12 0 -16 23 -16 29 0 30 2 46
78 21 97 21 92 -5 92 -15 0 -29 -11 -40 -30 -12 -21 -25 -30 -43 -30 -20 0
-25 4 -21 18 2 9 7 32 11 50 6 31 8 32 56 32 58 0 105 -21 114 -51 6 -17 12
-19 33 -14 15 4 28 8 30 10 2 1 -6 29 -17 61 l-20 59 -159 3 c-159 2 -160 2
-166 -20z m48 -13 c3 -8 1 -15 -4 -15 -6 0 -10 7 -10 15 0 8 2 15 4 15 2 0 6
-7 10 -15z m267 -12 c12 -16 12 -17 -1 -8 -14 9 -14 9 0 -5 19 -19 22 -50 4
-43 -8 3 -11 9 -8 14 3 5 -1 9 -9 9 -8 0 -20 7 -27 15 -7 9 -19 14 -27 11 -8
-3 -11 -1 -8 4 4 6 -14 10 -46 10 -40 0 -56 -5 -70 -22 -20 -22 -23 -31 -20
-60 2 -11 -4 -18 -14 -18 -13 0 -13 -3 4 -21 18 -20 19 -55 1 -44 -9 6 -22
-25 -27 -65 -11 -90 -3 -99 84 -95 42 2 69 8 74 16 10 16 12 8 3 -15 -9 -23
-239 -24 -248 0 -3 8 -2 13 3 10 9 -6 41 85 41 120 0 12 5 26 10 29 6 3 10 22
10 41 0 26 3 33 13 28 8 -5 8 -2 -2 9 -7 9 -9 17 -4 17 5 0 8 18 7 40 l-1 40
122 0 c105 0 125 -3 136 -17z m-100 -107 c-6 -7 -9 -15 -6 -18 3 -3 -2 -22
-11 -43 -16 -40 -18 -39 -45 9 -8 13 -8 17 0 12 6 -4 11 -3 11 2 0 6 8 9 17 8
10 0 18 5 19 12 1 6 3 15 4 20 1 4 2 11 1 15 -1 5 3 6 9 2 8 -5 8 -11 1 -19z
m97 -135 c-8 -3 -14 -14 -12 -24 1 -10 -2 -14 -8 -11 -6 4 -9 1 -6 -7 3 -8 -5
-22 -18 -31 -29 -24 -37 -23 -28 4 8 27 28 48 45 48 7 0 9 3 6 7 -10 10 14 34
26 26 7 -4 5 -9 -5 -12z"/>
<path d="M1720 1379 c0 -5 5 -7 10 -4 6 3 10 8 10 11 0 2 -4 4 -10 4 -5 0 -10
-5 -10 -11z"/>
<path d="M1860 1461 c0 -6 4 -13 10 -16 6 -3 7 1 4 9 -7 18 -14 21 -14 7z"/>
<path d="M2116 1648 c-9 -35 -8 -38 14 -38 26 0 26 -13 -6 -151 -27 -120 -36
-139 -64 -139 -14 0 -29 -25 -30 -50 0 -3 45 -5 100 -5 70 0 100 4 100 12 0 6
3 18 6 27 4 11 0 16 -13 16 -29 0 -31 6 -18 62 8 37 17 53 33 59 15 6 20 4 17
-4 -3 -7 15 -48 39 -91 l44 -80 56 0 c36 -1 56 3 56 11 0 6 3 18 6 26 3 9 -3
17 -18 21 -14 3 -37 29 -60 66 l-37 60 25 0 c14 0 40 14 60 33 74 67 50 159
-46 178 -25 4 -93 8 -151 9 -102 0 -107 -1 -113 -22z m295 -24 c20 -10 28 -23
31 -49 2 -19 0 -35 -5 -35 -4 0 -5 -5 -1 -12 5 -8 2 -9 -10 -5 -10 4 -15 3
-11 -3 9 -14 -9 -12 -23 2 -16 16 -16 51 1 42 6 -4 3 3 -8 16 -11 13 -15 20
-8 17 13 -8 12 18 -2 30 -4 4 -5 2 -1 -5 6 -10 1 -11 -21 -6 -81 18 -95 17
-114 -7 -10 -13 -19 -33 -19 -43 0 -10 -8 -25 -17 -32 -17 -13 -17 -14 1 -7
13 4 17 3 12 -5 -4 -6 3 -21 15 -33 16 -16 29 -20 53 -16 40 6 69 -8 46 -23
-8 -5 -11 -10 -6 -10 5 0 3 -6 -3 -14 -8 -10 -9 -16 -1 -21 6 -3 8 -10 5 -15
-3 -5 -1 -11 4 -14 11 -7 9 13 -2 32 -5 6 -4 12 1 12 5 0 16 -15 23 -32 7 -18
23 -42 34 -53 11 -11 21 -25 22 -32 4 -18 -25 -23 -42 -7 -8 9 -15 12 -15 7 0
-7 -7 4 -37 62 -5 11 -17 34 -26 51 -9 17 -14 33 -12 36 3 2 -13 4 -35 4 -31
0 -41 -5 -49 -24 -6 -13 -8 -28 -4 -34 4 -8 0 -9 -12 -4 -15 5 -16 4 -5 -9 17
-20 7 -29 -18 -16 -17 9 -18 14 -8 53 6 24 15 48 19 55 4 6 1 13 -5 16 -9 3
-7 11 7 27 11 13 15 21 10 18 -7 -4 -9 8 -7 32 2 21 -1 41 -7 44 -6 4 -11 12
-11 17 0 15 230 9 261 -7z m-63 -36 c17 -17 15 -48 -5 -70 -21 -23 -119 -27
-110 -4 3 8 9 31 13 50 6 34 8 36 48 36 23 0 47 -5 54 -12z m50 -81 c8 -9 4
-16 -17 -28 -25 -14 -30 -15 -47 -1 -16 13 -17 14 -1 9 11 -4 22 1 29 13 15
23 22 25 36 7z m-235 -166 c-2 -6 1 -11 7 -11 5 0 14 -9 20 -20 10 -19 8 -20
-50 -20 -39 0 -60 4 -60 12 0 6 3 8 6 5 10 -10 45 35 40 49 -4 10 1 11 17 4
12 -4 21 -13 20 -19z"/>
<path d="M2295 1449 c-4 -6 -5 -12 -2 -15 2 -3 7 2 10 11 7 17 1 20 -8 4z"/>
<path d="M2365 1490 c-3 -6 1 -7 9 -4 18 7 21 14 7 14 -6 0 -13 -4 -16 -10z"/>
<path d="M2555 1655 c-3 -8 -7 -21 -9 -29 -3 -9 3 -16 17 -18 26 -4 26 -3 -11
-163 -23 -99 -31 -121 -47 -124 -22 -4 -35 -19 -35 -41 0 -12 14 -15 77 -13
74 1 78 2 84 27 6 21 4 26 -12 26 -25 0 -24 14 6 148 27 121 31 162 14 145 -5
-5 -11 -21 -11 -34 -1 -13 -5 -28 -8 -34 -4 -5 -13 -38 -20 -73 -8 -40 -16
-60 -22 -54 -6 6 -6 18 1 31 7 11 12 37 13 56 1 19 7 40 15 47 11 9 12 13 1
20 -10 8 -10 11 0 15 6 2 12 12 12 21 0 12 -3 13 -8 5 -6 -9 -11 -7 -20 7 -12
19 -9 20 59 20 62 0 70 -2 59 -15 -8 -10 -9 -19 -3 -27 5 -7 8 -35 7 -63 -3
-47 11 -105 25 -105 3 0 5 54 3 120 l-3 120 -90 0 c-71 0 -91 -3 -94 -15z m25
-287 c0 -10 -6 -18 -12 -18 -9 0 -8 -4 2 -10 8 -5 11 -10 7 -10 -5 0 -1 -7 7
-16 25 -25 19 -29 -34 -26 -27 2 -47 8 -44 13 3 5 8 8 12 6 12 -6 39 29 36 46
-1 9 2 19 6 22 5 3 7 13 4 23 -5 14 -4 15 5 2 6 -8 11 -23 11 -32z"/>
<path d="M2800 1564 c-54 -116 -56 -120 -39 -126 8 -3 6 -14 -5 -36 -9 -18
-21 -30 -26 -27 -6 3 -7 -1 -4 -9 3 -8 0 -25 -7 -38 -7 -13 -12 -27 -10 -33 1
-6 -2 -6 -9 1 -6 6 -13 70 -16 150 -9 205 -24 201 -21 -5 l2 -174 24 -2 c21
-2 32 16 108 169 46 94 83 164 81 156 -2 -8 -16 -70 -32 -138 -26 -106 -32
-123 -52 -128 -18 -5 -33 -28 -34 -54 0 -3 39 -5 87 -5 69 0 90 3 95 15 12 26
9 38 -13 43 -15 4 -19 11 -15 24 3 10 17 69 31 132 30 131 30 131 54 131 16 0
30 25 31 53 0 4 -41 7 -90 7 l-90 0 -50 -106z m165 65 c6 -7 6 -12 -2 -17 -12
-7 -53 -155 -53 -191 0 -12 -4 -21 -9 -21 -5 0 -9 -6 -8 -12 1 -42 -4 -56 -20
-53 -10 1 -12 0 -5 -2 7 -3 9 -10 6 -16 -5 -8 -3 -8 6 0 10 9 17 10 27 2 23
-20 14 -25 -49 -26 -44 -1 -57 1 -43 7 11 5 16 9 12 9 -4 1 1 10 12 22 11 12
17 27 14 35 -2 7 0 28 6 47 27 80 34 188 13 195 -7 2 -16 -5 -19 -17 -3 -12
-10 -21 -15 -21 -6 0 -7 7 -4 16 3 9 6 20 6 25 0 6 4 8 9 5 5 -3 11 2 13 12 4
14 13 17 49 14 24 -2 48 -8 54 -13z m25 5 c0 -8 -4 -12 -10 -9 -5 3 -10 10
-10 16 0 5 5 9 10 9 6 0 10 -7 10 -16z m-209 -177 c-10 -9 -11 -8 -5 6 3 10 9
15 12 12 3 -3 0 -11 -7 -18z"/>
<path d="M2901 1524 c0 -11 3 -14 6 -6 3 7 2 16 -1 19 -3 4 -6 -2 -5 -13z"/>
<path d="M2885 1460 c-3 -6 1 -7 9 -4 18 7 21 14 7 14 -6 0 -13 -4 -16 -10z"/>
<path d="M2867 1379 c7 -7 15 -10 18 -7 3 3 -2 9 -12 12 -14 6 -15 5 -6 -5z"/>
<path d="M3110 1504 c-56 -91 -113 -172 -126 -181 -13 -8 -24 -25 -24 -37 0
-20 5 -21 77 -21 60 0 80 4 85 15 14 31 9 42 -17 38 -13 -3 -23 -2 -22 1 36
80 38 81 105 81 l63 0 -3 -37 c-2 -31 -7 -39 -25 -41 -13 -2 -23 -9 -23 -17 0
-7 -2 -19 -5 -27 -4 -10 14 -13 87 -13 90 0 93 1 100 24 5 17 2 28 -9 36 -11
8 -23 57 -39 156 -35 207 -27 189 -78 189 l-44 0 -102 -166z m154 136 c14 0
53 -166 42 -177 -3 -3 -2 -11 4 -18 5 -6 10 -29 11 -50 2 -22 8 -43 13 -47 7
-5 5 -8 -4 -8 -10 0 -7 -5 8 -16 12 -8 22 -19 22 -25 0 -13 -107 -11 -116 3
-5 7 -2 9 8 6 16 -7 17 -5 21 64 2 37 0 47 -11 45 -8 -1 -17 4 -20 12 -2 8 0
11 5 8 6 -4 9 16 8 48 -2 38 1 52 9 48 6 -4 -2 10 -17 30 -24 31 -26 40 -16
58 10 19 9 21 -5 16 -11 -4 -15 -3 -11 4 4 6 14 8 22 5 8 -3 20 -6 27 -6z
m-49 -30 c-3 -5 -2 -18 3 -27 5 -10 12 -44 16 -75 l6 -58 -40 0 -40 0 29 58
c16 32 26 63 23 69 -4 6 -20 -15 -36 -47 -17 -34 -34 -56 -40 -53 -6 4 -5 -1
3 -10 9 -12 10 -17 2 -17 -7 0 -10 -4 -6 -9 3 -6 14 -8 25 -6 11 2 20 -1 20
-7 0 -6 -13 -8 -30 -6 -16 3 -30 1 -30 -4 0 -5 -4 -7 -9 -4 -5 3 -14 -8 -20
-24 -5 -17 -15 -30 -21 -30 -6 0 -8 -4 -5 -10 4 -6 -1 -7 -12 -3 -15 6 -16 4
-6 -9 7 -8 9 -19 5 -23 -4 -5 -2 -6 3 -2 6 3 19 -1 30 -9 17 -13 14 -14 -33
-14 -49 0 -66 10 -40 26 6 4 8 3 5 -3 -3 -5 0 -10 7 -10 8 0 11 9 8 24 -3 15
1 25 12 29 9 3 16 10 16 16 0 5 12 25 26 43 14 19 24 35 23 37 -4 4 33 61 44
69 5 3 8 9 8 13 -2 11 43 86 52 86 5 0 5 -4 2 -10z"/>
<path d="M3480 1656 c0 -8 -3 -21 -6 -30 -4 -11 0 -16 13 -16 11 0 22 -2 25
-5 3 -3 -5 -52 -18 -108 -40 -172 -42 -177 -69 -177 -18 0 -25 -5 -25 -20 0
-11 0 -23 0 -26 0 -3 36 -6 79 -7 72 -2 81 0 85 18 9 31 7 35 -14 35 -11 0
-19 -6 -17 -12 1 -9 -17 -14 -58 -16 -33 -2 -56 0 -53 4 4 4 18 7 30 8 15 1
23 7 22 19 -1 9 1 17 5 17 4 0 15 43 26 95 10 52 22 95 27 95 5 0 6 5 2 11 -3
6 0 16 7 21 11 8 11 11 1 15 -9 4 -10 8 -2 18 8 10 6 15 -9 20 -12 3 -21 11
-21 16 0 12 91 11 110 -1 8 -5 12 -10 8 -10 -4 0 2 -20 13 -45 11 -25 21 -56
23 -68 3 -29 15 -57 36 -84 16 -21 18 -21 32 -5 9 9 16 24 16 32 1 19 9 58 17
90 14 49 13 80 0 80 -8 0 -17 5 -20 10 -4 6 16 10 52 9 44 -1 52 -3 33 -9 -14
-4 -21 -8 -16 -9 4 -1 1 -13 -8 -27 -10 -14 -16 -30 -13 -37 2 -6 -5 -20 -15
-31 -10 -11 -15 -22 -10 -25 4 -3 2 -31 -4 -61 -6 -34 -13 -49 -17 -40 -4 8
-5 4 -2 -10 7 -38 -15 -100 -36 -100 -10 0 -21 6 -26 13 -13 20 -42 150 -36
160 4 6 1 7 -7 2 -10 -6 -12 -4 -7 9 4 11 3 15 -4 10 -8 -4 -9 1 -4 15 4 12 2
21 -4 21 -6 0 -11 7 -11 15 0 8 -3 15 -8 15 -4 0 -16 12 -26 28 -9 15 -15 19
-12 9 3 -9 -3 -33 -14 -52 -11 -19 -17 -42 -14 -50 4 -8 2 -15 -3 -15 -5 0
-10 -15 -11 -33 -4 -51 -10 -78 -23 -93 -9 -11 -9 -14 0 -14 7 0 10 -4 7 -9
-3 -5 0 -11 7 -14 8 -3 14 5 15 22 2 14 13 73 26 131 22 101 23 104 33 70 6
-19 25 -85 43 -147 l33 -111 43 -4 c24 -2 44 -2 44 -2 0 5 62 276 71 307 8 30
14 37 34 37 15 0 25 6 25 14 0 8 3 21 6 30 5 14 -6 16 -80 16 -68 0 -86 -3
-86 -14 0 -8 -3 -21 -6 -30 -4 -11 0 -16 14 -16 12 0 23 -3 25 -7 2 -5 -6 -48
-18 -98 l-22 -90 -12 45 c-7 25 -24 82 -37 128 l-25 82 -80 0 c-61 0 -79 -3
-79 -14z"/>
<path d="M4193 1649 c-79 -39 -126 -116 -125 -207 1 -105 78 -182 183 -182 53
0 139 39 169 77 l20 26 -21 20 c-20 19 -21 19 -47 -6 -38 -35 -65 -47 -105
-47 -102 0 -121 175 -28 253 57 48 132 29 149 -36 7 -27 13 -33 41 -35 31 -3
33 -2 27 20 -3 13 -6 49 -6 81 0 53 -2 57 -23 57 -13 0 -28 -5 -34 -11 -8 -8
-17 -8 -31 0 -35 18 -123 13 -169 -10z m117 -9 c12 -7 8 -10 -15 -10 -44 0
-76 -11 -68 -23 4 -6 0 -8 -11 -4 -9 4 -15 3 -12 -2 3 -5 -2 -15 -11 -22 -10
-8 -14 -9 -10 -2 4 6 3 14 -3 18 -5 3 -10 11 -10 17 0 6 3 8 7 5 3 -4 12 -2
19 4 29 24 91 34 114 19z m34 -2 c-5 -8 -2 -9 10 -5 10 4 19 1 23 -8 4 -12 9
-13 19 -4 11 9 14 9 14 0 0 -7 4 -9 10 -6 6 4 9 -10 7 -34 -2 -41 -17 -59 -17
-21 0 11 -4 20 -10 20 -5 0 -15 10 -22 23 -7 12 -19 22 -27 22 -8 0 -16 6 -18
13 -3 6 0 12 7 12 6 0 8 -5 4 -12z m-169 -55 c0 -6 3 -14 7 -18 4 -4 1 -17 -7
-29 -8 -11 -17 -44 -20 -72 -6 -41 -3 -59 14 -91 11 -22 28 -43 37 -47 9 -4
14 -12 10 -22 -3 -9 -2 -12 5 -9 5 4 24 8 42 10 32 4 70 12 75 15 1 2 7 3 13
4 6 0 17 10 25 20 7 11 16 17 20 14 9 -9 -35 -50 -46 -43 -6 4 -10 1 -10 -5 0
-6 -6 -10 -12 -8 -7 1 -22 -1 -33 -5 -64 -21 -132 -9 -121 20 4 11 1 11 -14 3
-16 -8 -20 -8 -18 2 2 7 -2 12 -9 11 -8 -2 -10 4 -6 14 5 12 2 15 -9 11 -8 -3
-15 -1 -16 5 -14 102 -13 125 4 158 10 19 17 37 16 42 -1 4 3 7 9 7 5 0 7 5 3
12 -4 7 -3 8 5 4 6 -4 9 -11 6 -16 -3 -4 2 -13 9 -19 10 -9 16 -9 21 -1 4 6 1
9 -5 8 -7 -2 -14 8 -16 20 -3 16 0 22 8 20 7 -3 13 -10 13 -15z"/>
<path d="M4100 1489 c0 -5 5 -7 10 -4 6 3 10 8 10 11 0 2 -4 4 -10 4 -5 0 -10
-5 -10 -11z"/>
<path d="M4571 1500 c-57 -93 -112 -172 -121 -175 -15 -5 -29 -32 -30 -55 0
-3 37 -4 82 -3 l81 2 12 35 c11 32 11 34 -6 23 -28 -17 -34 -1 -16 38 16 34
18 35 77 35 55 0 60 -2 66 -25 8 -34 -1 -55 -25 -55 -18 0 -31 -18 -31 -43 0
-8 28 -12 90 -12 86 0 91 1 97 23 3 15 0 27 -10 35 -10 8 -24 67 -43 180 l-27
167 -46 0 -46 -1 -104 -169z m123 128 c-5 -8 -1 -8 10 1 15 13 19 13 27 0 7
-12 9 -12 10 1 2 34 19 -49 21 -107 2 -33 6 -59 9 -57 7 4 19 -56 19 -98 0
-16 5 -28 12 -28 6 0 8 -3 5 -6 -3 -4 -2 -15 4 -25 9 -18 5 -19 -46 -19 -53 0
-72 11 -40 24 20 7 19 64 -1 104 -14 29 -20 32 -59 32 l-43 0 30 56 c17 30 28
58 24 61 -8 8 -36 -17 -36 -33 0 -7 -6 -17 -12 -21 -7 -4 -13 -15 -13 -23 0
-8 -6 -14 -13 -12 -9 2 -7 -7 7 -27 18 -25 19 -30 5 -35 -8 -3 -12 -2 -9 4 3
6 1 10 -5 10 -6 0 -8 5 -4 12 4 7 3 8 -4 4 -6 -4 -9 -13 -6 -20 3 -8 -7 -23
-21 -34 -16 -13 -24 -26 -19 -33 5 -9 2 -10 -10 -6 -15 6 -14 3 3 -22 12 -16
21 -32 21 -35 0 -3 -20 -6 -45 -6 -49 0 -60 16 -25 38 12 7 18 17 15 22 -3 5
4 14 15 20 11 6 18 15 15 19 -8 13 22 34 37 25 10 -5 10 -4 2 5 -9 10 -6 24
14 61 14 27 30 46 36 43 5 -4 7 3 4 15 -4 12 -3 20 2 17 11 -7 33 22 25 35 -4
6 -1 9 7 8 7 -2 12 3 10 11 -2 8 3 18 10 22 18 12 20 11 12 -3z m8 -210 c-7
-7 -12 -8 -12 -2 0 14 12 26 19 19 2 -3 -1 -11 -7 -17z"/>
<path d="M4692 1590 c-7 -11 -9 -20 -5 -20 5 0 9 -24 11 -53 3 -55 13 -74 32
-62 8 5 8 10 -1 21 -6 7 -9 31 -7 53 2 22 -1 39 -6 38 -4 -1 -11 4 -14 12 -3
8 0 11 7 7 7 -5 9 -1 5 8 -8 20 -7 20 -22 -4z"/>
<path d="M4545 1400 c-3 -5 -1 -10 4 -10 6 0 11 5 11 10 0 6 -2 10 -4 10 -3 0
-8 -4 -11 -10z"/>
<path d="M4504 1318 c-4 -7 -3 -8 5 -4 6 4 20 2 29 -6 15 -12 16 -11 3 5 -16
20 -27 22 -37 5z"/>
<path d="M4942 1641 c-10 -29 -9 -31 13 -31 27 0 42 16 23 23 -7 3 45 6 115 6
75 1 126 -3 123 -8 -4 -5 2 -8 11 -7 23 4 33 -11 33 -51 0 -20 -7 -36 -17 -43
-17 -11 -17 -11 0 -6 15 5 16 2 7 -14 -13 -23 -28 -33 -57 -36 -29 -3 -35 7
-15 26 14 13 15 12 9 -3 -4 -11 -3 -16 3 -12 6 3 10 13 10 21 0 8 3 13 8 10 4
-2 6 13 4 35 -2 21 -8 39 -14 39 -5 0 -6 5 -2 12 4 6 3 8 -4 4 -5 -3 -12 -1
-14 5 -2 6 -28 14 -57 17 -39 3 -52 2 -47 -7 4 -6 0 -14 -8 -17 -9 -3 -13 -11
-9 -17 4 -6 0 -8 -10 -4 -10 3 -17 2 -17 -2 0 -5 6 -12 13 -14 9 -4 9 -6 -1
-6 -9 -1 -10 -7 -4 -18 4 -10 7 -28 7 -40 -1 -12 2 -20 6 -17 5 3 9 1 9 -4 0
-5 13 -12 29 -14 17 -2 28 -1 25 4 -6 9 44 3 54 -6 3 -3 -3 -15 -12 -25 -18
-20 -14 -42 7 -40 9 0 9 2 0 6 -7 2 -13 9 -13 15 0 7 5 6 14 -1 8 -7 13 -21
11 -31 -2 -11 1 -23 7 -26 7 -5 8 -2 4 7 -4 8 0 5 9 -6 9 -11 25 -31 36 -43
22 -26 19 -38 -5 -29 -9 4 -13 13 -10 22 3 8 1 15 -6 15 -6 0 -9 -4 -6 -8 2
-4 0 -14 -5 -22 -8 -13 -13 -11 -30 9 -11 14 -18 33 -16 43 3 10 0 16 -7 15
-6 -1 -11 5 -11 13 0 8 -6 20 -13 25 -7 6 -12 17 -10 25 2 9 -4 14 -14 14 -10
-1 -15 2 -12 7 3 5 -1 9 -8 10 -7 0 -21 2 -30 4 -10 2 -18 -3 -18 -11 0 -8 -5
-14 -11 -14 -5 0 -8 -4 -5 -9 3 -5 -1 -30 -8 -55 -13 -44 -13 -47 6 -57 29
-15 6 -29 -49 -29 -46 0 -61 11 -38 30 13 11 14 10 10 -2 -3 -8 0 -15 7 -15 9
0 12 12 9 40 -2 26 0 37 7 33 6 -3 14 -1 18 5 4 8 3 9 -4 5 -14 -9 -15 -3 -1
49 5 22 12 56 14 75 2 19 12 40 21 47 10 7 13 13 7 13 -6 0 -10 11 -9 24 2 15
-1 23 -9 20 -6 -3 -24 -62 -39 -132 -32 -143 -39 -162 -65 -162 -15 0 -30 -24
-31 -50 0 -3 44 -4 97 -3 96 1 98 2 104 27 6 21 4 26 -11 26 -28 0 -31 13 -18
69 8 36 16 51 26 49 8 -2 35 -41 61 -87 l46 -84 55 0 c50 0 55 2 61 26 6 21 3
26 -16 31 -14 4 -37 28 -57 58 -43 69 -43 68 -18 68 33 0 80 38 97 77 11 28
12 42 3 69 -18 55 -54 67 -206 72 l-131 4 -11 -31z m229 -51 c23 -13 25 -47 2
-72 -11 -13 -30 -18 -65 -18 -26 0 -48 3 -48 6 0 3 5 25 11 50 11 41 13 44 46
44 19 0 43 -5 54 -10z"/>
<path d="M3626 1553 c-6 -14 -5 -15 5 -6 7 7 10 15 7 18 -3 3 -9 -2 -12 -12z"/>
<path d="M5166 1341 c-3 -4 1 -17 10 -27 14 -18 15 -18 5 2 -6 12 -7 24 -4 28
3 3 4 6 0 6 -3 0 -8 -4 -11 -9z"/>
<path d="M1558 1223 c7 -3 16 -2 19 1 4 3 -2 6 -13 5 -11 0 -14 -3 -6 -6z"/>
<path d="M3610 976 c0 -2 7 -7 16 -10 8 -3 12 -2 9 4 -6 10 -25 14 -25 6z"/>
<path d="M5079 956 c-94 -33 -154 -118 -153 -216 1 -112 73 -183 184 -183 61
0 100 16 155 65 l36 31 -22 23 -22 24 -38 -35 c-49 -44 -101 -55 -137 -28 -82
61 -48 230 52 263 57 19 116 -21 116 -78 0 -20 4 -23 23 -18 12 3 27 6 34 6 7
0 10 14 7 43 -11 96 -14 107 -34 107 -10 0 -21 -4 -24 -9 -3 -5 -23 -3 -43 5
-48 17 -88 17 -134 0z m71 -14 c0 -4 -15 -13 -32 -20 -55 -22 -63 -28 -63 -48
0 -12 -7 -18 -17 -18 -10 1 -15 -3 -12 -8 4 -6 0 -14 -7 -19 -10 -6 -10 -9 -2
-9 7 0 10 -6 8 -12 -12 -31 -22 -107 -14 -102 5 3 9 -4 9 -15 0 -11 5 -23 10
-26 6 -4 8 -11 5 -16 -4 -5 -1 -9 5 -9 6 0 10 -7 8 -16 -2 -10 5 -18 15 -19 9
-2 15 1 11 6 -3 5 -10 6 -16 3 -7 -5 -8 -2 -3 6 6 10 12 9 24 -7 18 -22 70
-25 93 -5 8 6 19 7 26 3 21 -13 -61 -34 -104 -27 -22 4 -49 8 -61 9 -17 2 -19
5 -10 15 9 11 7 13 -8 10 -25 -4 -57 52 -65 113 -4 26 -3 46 2 43 4 -3 8 1 8
8 0 7 12 31 26 53 17 27 19 33 5 16 -23 -25 -27 -21 -11 10 6 10 17 19 25 19
8 0 15 4 15 8 0 13 59 43 72 36 7 -5 8 -3 3 6 -6 10 -4 12 8 7 9 -3 19 -2 22
3 7 12 25 13 25 2z m89 -22 c10 0 18 -7 18 -15 0 -19 -5 -19 -24 0 -8 8 -19
13 -24 10 -5 -4 -6 2 -2 11 4 11 8 13 11 6 2 -7 12 -12 21 -12z m46 -39 c4
-43 3 -49 -9 -39 -7 7 -11 19 -8 27 4 10 1 12 -9 7 -8 -4 -5 0 5 8 11 9 15 16
9 16 -6 0 -10 8 -8 18 2 9 4 19 4 21 3 18 13 -16 16 -58z m-23 -228 c-6 -2 -9
-10 -6 -15 4 -7 2 -8 -5 -4 -13 9 -5 26 12 25 9 0 8 -2 -1 -6z"/>
<path d="M4986 661 c-3 -4 0 -14 7 -22 7 -8 11 -12 10 -10 -2 2 2 10 9 18 9
11 7 12 -7 7 -13 -5 -16 -4 -11 4 4 7 5 12 2 12 -3 0 -7 -4 -10 -9z"/>
<path d="M3366 938 c-9 -35 -8 -38 14 -38 25 0 25 1 0 -113 -36 -163 -38 -167
-64 -167 -19 0 -25 -6 -28 -30 l-5 -31 80 3 c78 3 81 4 88 31 7 24 5 27 -18
27 -21 0 -24 4 -19 23 3 12 15 67 27 122 33 158 38 154 38 -32 l1 -173 25 0
c22 0 33 16 91 133 75 148 97 204 85 212 -5 3 -12 -7 -15 -21 -4 -15 -9 -24
-12 -22 -2 3 1 19 7 36 10 29 15 32 52 33 23 0 58 2 77 5 l35 4 -32 -22 c-29
-21 -44 -48 -48 -88 -1 -8 -3 -17 -4 -20 -1 -3 -4 -22 -6 -44 -2 -21 -9 -44
-15 -50 -5 -7 -8 -15 -5 -18 3 -2 0 -19 -5 -37 -8 -29 -6 -36 13 -52 25 -21
25 -21 -61 -23 -53 -1 -60 1 -45 12 10 7 23 10 29 8 8 -3 10 3 7 17 -4 18 -3
19 6 7 9 -12 11 -11 12 10 1 14 1 33 0 43 -1 9 3 17 9 17 7 0 10 6 7 14 -3 7
-1 18 4 23 5 5 9 30 10 56 2 40 4 45 17 34 13 -10 14 -9 4 10 -7 12 -10 28 -9
35 2 7 2 10 0 5 -3 -4 -8 -5 -12 -3 -4 3 -18 -39 -30 -92 -34 -145 -40 -162
-61 -162 -11 0 -22 -11 -29 -30 l-10 -30 93 0 c89 0 94 1 100 23 9 34 8 37
-15 37 -23 0 -24 -10 18 173 23 100 26 107 49 107 14 0 24 6 24 14 0 8 3 21 6
30 5 14 -6 16 -88 16 l-95 0 -48 -105 c-26 -58 -51 -107 -54 -109 -3 -2 -5 45
-3 105 l3 109 -94 0 c-90 0 -95 -1 -101 -22z m60 -6 c-3 -5 23 -7 57 -5 34 2
57 0 50 -3 -7 -3 -10 -11 -8 -17 2 -7 6 -44 8 -83 3 -39 10 -81 17 -94 l13
-24 14 27 c20 40 25 33 6 -10 -33 -76 -47 -102 -55 -97 -4 3 -7 -4 -5 -15 1
-11 -2 -21 -7 -23 -5 -2 -11 62 -13 146 -3 166 -11 191 -49 155 -12 -12 -20
-27 -18 -33 3 -7 1 -23 -4 -37 -8 -20 -9 -17 -10 23 -1 27 -6 56 -11 67 -10
18 -6 31 11 31 5 0 7 -4 4 -8z m-7 -165 c1 -5 -3 -5 -9 -2 -5 3 -10 16 -9 28
0 21 1 21 9 2 5 -11 9 -24 9 -28z m-23 -84 c-11 -31 -13 -50 -6 -58 5 -7 7
-15 3 -19 -4 -4 0 -4 9 -1 9 4 18 0 22 -10 4 -11 2 -14 -7 -8 -16 10 -41 10
-48 -1 -4 -5 -15 -6 -24 -2 -17 6 -17 8 2 29 12 12 29 48 39 81 10 32 20 53
22 47 2 -6 -3 -32 -12 -58z"/>
<path d="M3515 760 c3 -5 8 -10 11 -10 2 0 4 5 4 10 0 6 -5 10 -11 10 -5 0 -7
-4 -4 -10z"/>
<path d="M3526 704 c-4 -9 -4 -19 -1 -22 3 -3 5 0 5 7 0 8 6 11 16 7 14 -5 15
-4 4 9 -16 19 -16 19 -24 -1z"/>
<path d="M3525 650 c-3 -5 -1 -10 4 -10 6 0 11 5 11 10 0 6 -2 10 -4 10 -3 0
-8 -4 -11 -10z"/>
<path d="M3355 609 c-4 -6 -5 -12 -2 -15 2 -3 7 2 10 11 7 17 1 20 -8 4z"/>
<path d="M3876 944 c-11 -29 -7 -46 9 -40 26 10 27 -16 5 -115 -37 -165 -38
-169 -64 -169 -21 0 -35 -21 -36 -52 0 -5 82 -8 183 -8 l183 0 36 74 37 74
-27 10 c-25 9 -30 6 -44 -19 -24 -41 -70 -65 -140 -73 -34 -3 -62 -5 -64 -4
-1 2 3 28 10 58 11 48 16 55 39 58 24 3 27 0 27 -28 0 -28 3 -31 27 -28 25 3
29 9 45 78 9 41 17 80 18 87 0 22 -50 9 -63 -16 -7 -14 -25 -28 -40 -32 -27
-7 -28 -6 -22 18 3 14 9 38 12 54 5 27 9 29 52 29 52 0 106 -27 116 -60 5 -16
12 -19 28 -14 36 11 38 18 19 75 l-19 54 -160 3 c-140 2 -161 0 -167 -14z
m314 -24 c0 -13 -1 -13 -10 0 -11 17 -13 10 -4 -14 3 -9 10 -14 14 -11 5 3 11
1 14 -4 3 -5 -4 -11 -15 -14 -12 -3 -18 -3 -15 0 16 16 -52 43 -106 43 -49 0
-60 -3 -72 -22 -20 -31 -31 -104 -17 -112 16 -10 71 -16 71 -7 0 4 6 8 14 8
11 0 13 -10 7 -35 -1 -1 -11 2 -23 8 -22 11 -22 10 -4 -4 10 -9 23 -13 27 -10
5 3 9 0 9 -5 0 -16 -18 -13 -48 7 -49 32 -81 16 -82 -38 0 -20 -2 -22 -11 -10
-8 12 -9 10 -4 -7 3 -13 2 -30 -3 -39 -10 -19 21 -59 38 -49 6 4 10 1 10 -5 0
-6 10 -8 25 -4 14 3 25 2 25 -2 0 -5 -36 -9 -80 -10 -50 0 -80 4 -80 10 0 6
-5 4 -10 -4 -17 -27 -11 7 8 39 10 19 23 29 31 26 11 -4 12 -3 1 10 -7 8 -9
22 -5 32 4 10 9 28 10 40 6 46 18 88 27 100 13 16 0 70 -18 77 -38 14 5 21
135 21 119 0 141 -2 141 -15z m-15 -261 c-2 -12 -9 -27 -16 -35 -6 -8 -8 -14
-3 -14 4 0 3 -5 -3 -11 -15 -15 -63 -20 -63 -7 0 6 -6 6 -15 -2 -15 -12 -35
-6 -35 11 0 6 4 8 9 5 12 -8 73 19 64 28 -4 4 0 4 8 1 10 -4 22 3 33 19 20 32
26 33 21 5z"/>
<path d="M4125 600 c-3 -6 1 -7 9 -4 18 7 21 14 7 14 -6 0 -13 -4 -16 -10z"/>
<path d="M4300 946 c0 -8 -3 -21 -6 -30 -5 -12 0 -16 21 -16 20 0 25 -4 21
-17 -3 -10 -17 -69 -30 -131 -14 -63 -28 -118 -31 -123 -4 -5 -17 -9 -29 -9
-19 0 -25 -7 -28 -31 l-5 -31 146 4 c130 3 151 6 194 27 60 29 102 85 118 156
15 66 6 115 -28 156 -42 50 -77 59 -218 59 -101 0 -125 -3 -125 -14z m145 -17
c36 -2 41 -3 18 -6 -32 -4 -52 -21 -57 -45 -1 -7 -9 -40 -16 -73 -8 -33 -13
-63 -12 -67 1 -5 -3 -8 -9 -8 -5 0 -8 -3 -6 -7 3 -5 2 -29 -2 -55 -7 -41 -5
-48 11 -54 10 -3 18 -9 18 -13 0 -5 12 -6 28 -3 15 2 24 2 21 -2 -3 -3 -27 -7
-53 -9 -35 -2 -45 0 -41 11 2 7 0 10 -5 7 -6 -3 -15 -3 -22 1 -8 5 -6 10 8 15
17 7 17 8 2 8 -10 1 -18 6 -18 12 0 5 6 7 13 3 9 -6 9 -4 1 7 -8 10 -8 31 3
79 8 36 15 71 15 78 1 6 5 12 9 12 4 0 10 7 13 16 3 9 2 12 -5 9 -6 -4 -7 3
-3 19 4 17 0 35 -9 50 -16 23 -15 24 16 20 18 -1 55 -4 82 -5z m117 0 c10 0
20 -5 23 -10 4 -5 10 -7 14 -5 4 3 14 -6 21 -19 7 -14 16 -25 19 -25 3 0 7
-30 9 -68 2 -48 0 -63 -8 -52 -7 11 -8 7 -4 -15 4 -23 0 -35 -15 -49 -11 -10
-18 -23 -14 -29 4 -6 0 -8 -11 -4 -9 4 -15 3 -12 -1 7 -11 -8 -33 -25 -36 -8
-2 -27 -8 -42 -14 -36 -15 -37 -15 -37 3 0 9 6 12 17 8 11 -4 14 -3 9 5 -5 8
-1 10 10 5 11 -4 15 -2 11 4 -7 11 16 37 24 28 3 -2 5 5 6 16 1 10 10 32 21
47 20 30 22 129 2 142 -6 4 -8 14 -4 23 5 14 2 16 -12 10 -17 -6 -18 -5 -4 12
8 10 10 16 3 12 -16 -10 -63 2 -63 15 0 6 9 7 23 3 12 -4 30 -7 39 -6z m-15
-64 c42 -49 20 -165 -41 -212 -25 -20 -112 -40 -123 -29 -5 4 39 225 53 265 8
23 85 7 111 -24z m-240 -242 c-4 -3 -1 -14 7 -22 13 -14 11 -16 -15 -16 -16
-1 -29 1 -29 3 0 12 23 42 32 42 6 0 8 -3 5 -7z m163 -23 c0 -5 -4 -10 -10
-10 -5 0 -10 5 -10 10 0 6 5 10 10 10 6 0 10 -4 10 -10z"/>
<path d="M4332 700 c0 -14 2 -19 5 -12 2 6 2 18 0 25 -3 6 -5 1 -5 -13z"/>
<path d="M4740 946 c0 -8 -3 -21 -6 -30 -5 -12 0 -16 20 -16 31 0 32 5 -7
-150 -29 -112 -34 -125 -56 -130 -16 -4 -27 -15 -32 -33 l-7 -27 98 0 98 0 11
30 c9 28 8 30 -15 30 -13 0 -24 4 -24 9 0 9 48 226 56 254 3 10 15 17 29 17
20 0 34 21 35 53 0 4 -45 7 -100 7 -80 0 -100 -3 -100 -14z m99 -16 l49 6 -23
-35 c-13 -20 -26 -56 -30 -81 -4 -25 -14 -56 -22 -69 -10 -16 -11 -21 -2 -16
9 6 10 3 4 -11 -4 -10 -11 -36 -15 -56 -6 -30 -3 -41 11 -54 24 -22 19 -27
-30 -30 -33 -2 -39 1 -35 14 5 15 4 14 -6 0 -6 -10 -19 -18 -28 -18 -10 0 -13
3 -7 8 6 4 21 22 34 40 14 21 29 31 38 28 8 -4 11 -1 8 5 -4 6 -13 8 -20 5
-10 -3 -11 3 -4 27 38 145 47 217 29 217 -5 0 -10 8 -9 18 0 9 3 12 5 6 3 -6
22 -8 53 -4z"/>
<path d="M4821 834 c0 -11 3 -14 6 -6 3 7 2 16 -1 19 -3 4 -6 -2 -5 -13z"/>
<path d="M4811 794 c0 -11 3 -14 6 -6 3 7 2 16 -1 19 -3 4 -6 -2 -5 -13z"/>
<path d="M4781 734 c0 -11 3 -14 6 -6 3 7 2 16 -1 19 -3 4 -6 -2 -5 -13z"/>
<path d="M5205 820 c3 -5 8 -10 11 -10 2 0 4 5 4 10 0 6 -5 10 -11 10 -5 0 -7
-4 -4 -10z"/>
<path d="M5206 718 c3 -5 10 -6 15 -3 13 9 11 12 -6 12 -8 0 -12 -4 -9 -9z"/>
<path d="M3690 599 c0 -5 5 -7 10 -4 6 3 10 8 10 11 0 2 -4 4 -10 4 -5 0 -10
-5 -10 -11z"/>
</g>
</svg>
