<svg version="1.1" id="Layer_1" xmlns="http://www.w3.org/2000/svg" xmlns:xlink="http://www.w3.org/1999/xlink" x="0px" y="0px"
	 width="100%" viewBox="0 0 1252 302" enable-background="new 0 0 1252 302" xml:space="preserve">
<path fill="#FFFFFF" opacity="1.000000" stroke="none" 
	d="
M834.000000,303.000000 
	C556.000000,303.000000 278.500000,303.000000 1.000000,303.000000 
	C1.000000,202.333328 1.000000,101.666664 1.000000,1.000000 
	C418.333344,1.000000 835.666687,1.000000 1253.000000,1.000000 
	C1253.000000,101.666664 1253.000000,202.333328 1253.000000,303.000000 
	C1113.500000,303.000000 974.000000,303.000000 834.000000,303.000000 
M380.172089,104.371414 
	C355.914490,101.211090 331.649536,98.104774 307.411194,94.802971 
	C305.106537,94.489021 302.968567,92.951515 299.726410,91.532722 
	C302.404968,89.505554 303.794739,88.376595 305.260468,87.356850 
	C315.554077,80.195412 327.303955,76.025627 339.029785,72.303261 
	C356.875854,66.638046 374.956665,61.555225 393.195496,57.340328 
	C405.142853,54.579365 417.499146,52.936798 429.752441,52.272503 
	C467.024689,50.251831 504.335571,49.594254 541.515015,54.041271 
	C561.981445,56.489254 582.455688,58.982826 602.819885,62.142063 
	C620.711914,64.917770 638.525635,68.319122 656.241089,72.071335 
	C668.723694,74.715233 680.995239,78.366562 693.339355,81.649323 
	C701.521118,83.825142 709.661072,86.157501 717.829407,88.384636 
	C718.939392,88.687286 720.105225,88.785011 721.245239,88.977623 
	C720.221924,87.455261 719.011047,86.593979 717.671143,86.051338 
	C702.567383,79.934525 687.615662,73.388962 672.292603,67.877464 
	C630.624817,52.890163 588.418579,39.594013 544.479431,33.057613 
	C528.057495,30.614693 511.379974,29.024426 494.792419,28.768856 
	C471.328247,28.407333 447.605743,27.777218 424.421814,30.680655 
	C396.941681,34.122124 369.719452,40.383873 342.749634,46.924961 
	C315.790466,53.463470 289.444946,62.509632 262.530823,69.262451 
	C232.502670,76.796585 202.167496,83.294731 170.923340,83.008011 
	C161.187439,82.918678 151.457825,82.141426 141.732574,81.679428 
	C141.754410,81.844505 141.679565,82.265518 141.855392,82.460732 
	C144.752731,85.677444 147.668411,88.877953 150.606476,92.057602 
	C155.315247,97.153564 155.576126,97.807205 150.937744,102.811020 
	C137.955948,116.815529 130.342575,133.313705 127.542091,152.075424 
	C126.909523,156.313309 127.050484,160.666626 126.835365,164.966812 
	C127.467331,165.034485 128.099289,165.102158 128.731262,165.169830 
	C129.131241,163.691925 129.531189,162.214020 129.931229,160.736145 
	C131.796432,153.845642 133.348892,146.850662 135.606857,140.091354 
	C138.364120,131.837448 142.211472,129.985611 150.944733,131.534775 
	C163.090286,133.689240 175.251419,135.630524 187.649567,133.680328 
	C201.015762,131.577881 212.123108,124.471336 223.327774,117.614174 
	C231.725235,112.474998 240.266251,109.207077 250.051773,113.819809 
	C251.983063,114.730194 254.159668,115.187767 256.268707,115.643074 
	C279.662231,120.693176 303.067352,125.689545 326.464233,130.724152 
	C363.026398,138.591690 400.165070,142.256958 437.363831,144.768600 
	C469.769623,146.956619 502.280670,148.331375 534.755615,148.555908 
	C573.559814,148.824234 612.378540,147.643005 651.184326,146.786057 
	C674.172241,146.278412 697.155823,145.370316 720.126160,144.311813 
	C756.045898,142.656555 791.949829,140.663208 827.866089,138.928162 
	C846.673462,138.019608 865.514526,137.701248 884.302124,136.511719 
	C926.041870,133.869034 967.732605,130.931015 1009.277283,138.997391 
	C1020.676331,141.210663 1031.089722,144.052246 1039.753906,152.945236 
	C1050.799438,164.282501 1064.758545,172.306259 1080.076172,175.782272 
	C1090.914062,178.241684 1098.076294,183.468399 1103.598877,192.327026 
	C1105.534790,195.432297 1108.087280,198.192795 1109.740479,201.426514 
	C1113.193726,208.181229 1116.497070,215.039688 1119.359863,222.060257 
	C1121.433716,227.146103 1122.699951,232.561325 1124.326172,237.829681 
	C1125.340088,232.769470 1125.889771,227.799271 1125.242920,222.989990 
	C1122.709961,204.156265 1114.220093,187.724762 1102.659912,173.099533 
	C1082.676025,147.817337 1055.609497,132.746689 1025.503418,123.008446 
	C996.201843,113.530502 965.817078,111.576218 935.199097,111.601929 
	C897.191650,111.633842 859.287903,113.643669 821.342041,115.614220 
	C779.589661,117.782448 737.722168,118.786423 695.913696,118.571365 
	C634.436157,118.255135 572.965942,116.433846 511.493591,115.205116 
	C467.797821,114.331718 424.478638,108.793114 380.172089,104.371414 
M320.363708,162.013489 
	C315.026581,160.779572 309.646729,159.704727 304.359772,158.284088 
	C281.873383,152.241821 260.555756,156.651123 241.640915,168.615036 
	C209.579346,188.894424 194.100601,224.709106 203.095322,262.779022 
	C203.977249,266.511749 206.165466,269.935822 207.747345,273.503174 
	C208.916794,269.626801 208.906891,266.303406 208.918365,262.980103 
	C209.002792,238.533249 216.419708,217.349411 235.452713,200.855301 
	C244.207672,193.268204 254.012894,187.859634 264.861389,184.439499 
	C291.568817,176.019714 316.012787,181.772430 337.743652,198.401474 
	C359.079163,214.727951 367.488312,237.722626 368.488342,263.912109 
	C368.551392,265.563446 368.944824,267.202209 369.184570,268.846802 
	C370.484222,267.950897 370.884064,267.101166 371.149811,266.211426 
	C376.651184,247.793884 374.869171,229.685837 368.806824,211.763626 
	C366.598297,205.234543 367.313721,204.196381 374.202881,203.956665 
	C387.522125,203.493149 400.848297,203.177322 414.159576,202.546265 
	C458.580078,200.440338 502.996948,198.255814 547.411987,196.036972 
	C588.834656,193.967606 630.253662,191.826706 671.672607,189.683853 
	C675.789001,189.470886 679.893250,189.025208 684.003174,188.687515 
	C680.890686,187.356018 677.805664,187.067230 674.714050,186.941788 
	C631.438293,185.185928 588.164734,183.368454 544.884338,181.733429 
	C482.957794,179.393997 421.030396,177.057327 359.092499,175.055588 
	C347.974609,174.696274 337.647217,173.148331 328.565216,166.244980 
	C326.346893,164.558792 323.605865,163.560303 320.363708,162.013489 
M952.550232,188.824570 
	C973.295349,183.466339 993.487183,185.286499 1011.935547,196.066711 
	C1043.255127,214.368118 1055.389282,242.702759 1051.210083,279.324249 
	C1068.298096,261.460541 1058.392822,210.449615 1034.495728,186.733383 
	C999.610046,152.111786 945.831726,151.943893 910.474182,186.013138 
	C878.140930,217.168259 878.727356,267.625854 897.565735,292.388702 
	C888.083984,242.780746 903.161621,206.908417 952.550232,188.824570 
M778.372253,186.888489 
	C765.438354,186.888489 752.504395,186.888489 739.570496,186.888489 
	C739.490112,187.722916 739.409790,188.557327 739.329407,189.391754 
	C744.731384,190.597824 750.090515,192.064133 755.543213,192.961197 
	C771.940125,195.658783 788.361694,198.213669 804.799744,200.648178 
	C809.682434,201.371307 813.035522,203.653671 815.185181,208.093964 
	C819.379578,216.757553 823.637207,225.393890 828.067078,233.938614 
	C830.140320,237.937637 832.675171,241.697372 835.430237,246.279816 
	C836.530029,244.574402 836.959412,244.093018 837.186157,243.529984 
	C843.138733,228.747955 849.112854,213.974091 854.922363,199.135849 
	C855.371704,197.988144 854.639343,196.377762 854.269714,193.561295 
	C849.649414,198.900406 846.097839,203.050430 842.494812,207.155197 
	C838.877502,211.276154 837.341980,211.168442 834.916504,206.402863 
	C832.657715,201.964828 830.558105,197.440582 828.534485,192.889328 
	C825.675659,186.459457 822.780396,184.752411 815.714294,185.135910 
	C803.592285,185.793808 791.462097,186.302887 778.372253,186.888489 
z"/>
<path fill="#39528E" opacity="1.000000" stroke="none" 
	d="
M380.614075,104.458366 
	C424.478638,108.793114 467.797821,114.331718 511.493591,115.205116 
	C572.965942,116.433846 634.436157,118.255135 695.913696,118.571365 
	C737.722168,118.786423 779.589661,117.782448 821.342041,115.614220 
	C859.287903,113.643669 897.191650,111.633842 935.199097,111.601929 
	C965.817078,111.576218 996.201843,113.530502 1025.503418,123.008446 
	C1055.609497,132.746689 1082.676025,147.817337 1102.659912,173.099533 
	C1114.220093,187.724762 1122.709961,204.156265 1125.242920,222.989990 
	C1125.889771,227.799271 1125.340088,232.769470 1124.326172,237.829681 
	C1122.699951,232.561325 1121.433716,227.146103 1119.359863,222.060257 
	C1116.497070,215.039688 1113.193726,208.181229 1109.740479,201.426514 
	C1108.087280,198.192795 1105.534790,195.432297 1103.598877,192.327026 
	C1098.076294,183.468399 1090.914062,178.241684 1080.076172,175.782272 
	C1064.758545,172.306259 1050.799438,164.282501 1039.753906,152.945236 
	C1031.089722,144.052246 1020.676331,141.210663 1009.277283,138.997391 
	C967.732605,130.931015 926.041870,133.869034 884.302124,136.511719 
	C865.514526,137.701248 846.673462,138.019608 827.866089,138.928162 
	C791.949829,140.663208 756.045898,142.656555 720.126160,144.311813 
	C697.155823,145.370316 674.172241,146.278412 651.184326,146.786057 
	C612.378540,147.643005 573.559814,148.824234 534.755615,148.555908 
	C502.280670,148.331375 469.769623,146.956619 437.363831,144.768600 
	C400.165070,142.256958 363.026398,138.591690 326.464233,130.724152 
	C303.067352,125.689545 279.662231,120.693176 256.268707,115.643074 
	C254.159668,115.187767 251.983063,114.730194 250.051773,113.819809 
	C240.266251,109.207077 231.725235,112.474998 223.327774,117.614174 
	C212.123108,124.471336 201.015762,131.577881 187.649567,133.680328 
	C175.251419,135.630524 163.090286,133.689240 150.944733,131.534775 
	C142.211472,129.985611 138.364120,131.837448 135.606857,140.091354 
	C133.348892,146.850662 131.796432,153.845642 129.931229,160.736145 
	C129.531189,162.214020 129.131241,163.691925 128.731262,165.169830 
	C128.099289,165.102158 127.467331,165.034485 126.835365,164.966812 
	C127.050484,160.666626 126.909523,156.313309 127.542091,152.075424 
	C130.342575,133.313705 137.955948,116.815529 150.937744,102.811020 
	C155.576126,97.807205 155.315247,97.153564 150.606476,92.057602 
	C147.668411,88.877953 144.752731,85.677444 141.855392,82.460732 
	C141.679565,82.265518 141.754410,81.844505 141.732574,81.679428 
	C151.457825,82.141426 161.187439,82.918678 170.923340,83.008011 
	C202.167496,83.294731 232.502670,76.796585 262.530823,69.262451 
	C289.444946,62.509632 315.790466,53.463470 342.749634,46.924961 
	C369.719452,40.383873 396.941681,34.122124 424.421814,30.680655 
	C447.605743,27.777218 471.328247,28.407333 494.792419,28.768856 
	C511.379974,29.024426 528.057495,30.614693 544.479431,33.057613 
	C588.418579,39.594013 630.624817,52.890163 672.292603,67.877464 
	C687.615662,73.388962 702.567383,79.934525 717.671143,86.051338 
	C719.011047,86.593979 720.221924,87.455261 721.245239,88.977623 
	C720.105225,88.785011 718.939392,88.687286 717.829407,88.384636 
	C709.661072,86.157501 701.521118,83.825142 693.339355,81.649323 
	C680.995239,78.366562 668.723694,74.715233 656.241089,72.071335 
	C638.525635,68.319122 620.711914,64.917770 602.819885,62.142063 
	C582.455688,58.982826 561.981445,56.489254 541.515015,54.041271 
	C504.335571,49.594254 467.024689,50.251831 429.752441,52.272503 
	C417.499146,52.936798 405.142853,54.579365 393.195496,57.340328 
	C374.956665,61.555225 356.875854,66.638046 339.029785,72.303261 
	C327.303955,76.025627 315.554077,80.195412 305.260468,87.356850 
	C303.794739,88.376595 302.404968,89.505554 299.726410,91.532722 
	C302.968567,92.951515 305.106537,94.489021 307.411194,94.802971 
	C331.649536,98.104774 355.914490,101.211090 380.614075,104.458366 
z"/>
<path fill="#D72934" opacity="1.000000" stroke="none" 
	d="
M320.734436,162.129562 
	C323.605865,163.560303 326.346893,164.558792 328.565216,166.244980 
	C337.647217,173.148331 347.974609,174.696274 359.092499,175.055588 
	C421.030396,177.057327 482.957794,179.393997 544.884338,181.733429 
	C588.164734,183.368454 631.438293,185.185928 674.714050,186.941788 
	C677.805664,187.067230 680.890686,187.356018 684.003174,188.687515 
	C679.893250,189.025208 675.789001,189.470886 671.672607,189.683853 
	C630.253662,191.826706 588.834656,193.967606 547.411987,196.036972 
	C502.996948,198.255814 458.580078,200.440338 414.159576,202.546265 
	C400.848297,203.177322 387.522125,203.493149 374.202881,203.956665 
	C367.313721,204.196381 366.598297,205.234543 368.806824,211.763626 
	C374.869171,229.685837 376.651184,247.793884 371.149811,266.211426 
	C370.884064,267.101166 370.484222,267.950897 369.184570,268.846802 
	C368.944824,267.202209 368.551392,265.563446 368.488342,263.912109 
	C367.488312,237.722626 359.079163,214.727951 337.743652,198.401474 
	C316.012787,181.772430 291.568817,176.019714 264.861389,184.439499 
	C254.012894,187.859634 244.207672,193.268204 235.452713,200.855301 
	C216.419708,217.349411 209.002792,238.533249 208.918365,262.980103 
	C208.906891,266.303406 208.916794,269.626801 207.747345,273.503174 
	C206.165466,269.935822 203.977249,266.511749 203.095322,262.779022 
	C194.100601,224.709106 209.579346,188.894424 241.640915,168.615036 
	C260.555756,156.651123 281.873383,152.241821 304.359772,158.284088 
	C309.646729,159.704727 315.026581,160.779572 320.734436,162.129562 
z"/>
<path fill="#D72934" opacity="1.000000" stroke="none" 
	d="
M952.152954,188.915863 
	C903.161621,206.908417 888.083984,242.780746 897.565735,292.388702 
	C878.727356,267.625854 878.140930,217.168259 910.474182,186.013138 
	C945.831726,151.943893 999.610046,152.111786 1034.495728,186.733383 
	C1058.392822,210.449615 1068.298096,261.460541 1051.210083,279.324249 
	C1055.389282,242.702759 1043.255127,214.368118 1011.935547,196.066711 
	C993.487183,185.286499 973.295349,183.466339 952.152954,188.915863 
z"/>
<path fill="#D72B36" opacity="1.000000" stroke="none" 
	d="
M778.853821,186.881470 
	C791.462097,186.302887 803.592285,185.793808 815.714294,185.135910 
	C822.780396,184.752411 825.675659,186.459457 828.534485,192.889328 
	C830.558105,197.440582 832.657715,201.964828 834.916504,206.402863 
	C837.341980,211.168442 838.877502,211.276154 842.494812,207.155197 
	C846.097839,203.050430 849.649414,198.900406 854.269714,193.561295 
	C854.639343,196.377762 855.371704,197.988144 854.922363,199.135849 
	C849.112854,213.974091 843.138733,228.747955 837.186157,243.529984 
	C836.959412,244.093018 836.530029,244.574402 835.430237,246.279816 
	C832.675171,241.697372 830.140320,237.937637 828.067078,233.938614 
	C823.637207,225.393890 819.379578,216.757553 815.185181,208.093964 
	C813.035522,203.653671 809.682434,201.371307 804.799744,200.648178 
	C788.361694,198.213669 771.940125,195.658783 755.543213,192.961197 
	C750.090515,192.064133 744.731384,190.597824 739.329407,189.391754 
	C739.409790,188.557327 739.490112,187.722916 739.570496,186.888489 
	C752.504395,186.888489 765.438354,186.888489 778.853821,186.881470 
z"/>
</svg>